<svg width="17" height="16" viewBox="0 0 17 16" fill="none" xmlns="http://www.w3.org/2000/svg">
<circle cx="8.63281" cy="7.99976" r="8" fill="black" fill-opacity="0.1"/>
<path d="M9.00112 5.43588C7.58226 5.43588 6.43781 6.58059 6.43781 7.99976C6.43781 9.41892 7.58226 10.5636 9.00112 10.5636C10.42 10.5636 11.5644 9.41892 11.5644 7.99976C11.5644 6.58059 10.42 5.43588 9.00112 5.43588ZM9.00112 9.66661C8.08422 9.66661 7.33463 8.91909 7.33463 7.99976C7.33463 7.08042 8.08199 6.3329 9.00112 6.3329C9.92025 6.3329 10.6676 7.08042 10.6676 7.99976C10.6676 8.91909 9.91801 9.66661 9.00112 9.66661ZM12.2671 5.33101C12.2671 5.66348 11.9994 5.92902 11.6693 5.92902C11.3369 5.92902 11.0714 5.66125 11.0714 5.33101C11.0714 5.00076 11.3391 4.73299 11.6693 4.73299C11.9994 4.73299 12.2671 5.00076 12.2671 5.33101ZM13.9649 5.93795C13.9269 5.13688 13.744 4.42729 13.1573 3.84267C12.5728 3.25804 11.8634 3.07507 11.0625 3.0349C10.237 2.98804 7.76297 2.98804 6.93753 3.0349C6.13887 3.07283 5.42945 3.25581 4.84272 3.84043C4.256 4.42506 4.07529 5.13464 4.03514 5.93571C3.98829 6.76133 3.98829 9.23595 4.03514 10.0616C4.07306 10.8626 4.256 11.5722 4.84272 12.1568C5.42945 12.7415 6.13664 12.9244 6.93753 12.9646C7.76297 13.0115 10.237 13.0115 11.0625 12.9646C11.8634 12.9267 12.5728 12.7437 13.1573 12.1568C13.7418 11.5722 13.9247 10.8626 13.9649 10.0616C14.0117 9.23595 14.0117 6.76356 13.9649 5.93795ZM12.8985 10.9474C12.7245 11.3848 12.3876 11.7217 11.9481 11.898C11.29 12.1591 9.72839 12.0988 9.00112 12.0988C8.27384 12.0988 6.70998 12.1568 6.0541 11.898C5.61684 11.724 5.27998 11.387 5.10374 10.9474C4.84272 10.2892 4.90296 8.72719 4.90296 7.99976C4.90296 7.27232 4.84495 5.70811 5.10374 5.05208C5.27775 4.61473 5.61461 4.27779 6.0541 4.10151C6.71221 3.84043 8.27384 3.90068 9.00112 3.90068C9.72839 3.90068 11.2922 3.84267 11.9481 4.10151C12.3854 4.27556 12.7223 4.6125 12.8985 5.05208C13.1595 5.71034 13.0993 7.27232 13.0993 7.99976C13.0993 8.72719 13.1595 10.2914 12.8985 10.9474Z" fill="white"/>
</svg>
