<?xml version="1.0" standalone="no"?>
<!DOCTYPE svg PUBLIC "-//W3C//DTD SVG 20010904//EN"
 "http://www.w3.org/TR/2001/REC-SVG-20010904/DTD/svg10.dtd">
<svg version="1.0" xmlns="http://www.w3.org/2000/svg"
 width="321.000000pt" height="180.000000pt" viewBox="0 0 321.000000 180.000000"
 preserveAspectRatio="xMidYMid meet">

<g transform="translate(0.000000,180.000000) scale(0.100000,-0.100000)"
fill="#000000" stroke="none">
<path d="M440 1761 c0 -5 4 -11 9 -13 5 -1 108 -99 228 -217 120 -117 240
-234 268 -260 46 -43 47 -43 15 -7 -19 22 -39 45 -45 52 -5 6 -108 111 -229
233 -196 198 -246 241 -246 212z"/>
<path d="M1300 1686 c-128 -34 -196 -126 -207 -276 -7 -95 13 -168 62 -232 32
-43 34 -48 22 -76 -11 -26 -15 -29 -32 -19 -18 9 -19 9 -6 -7 12 -15 11 -20
-11 -44 -68 -73 -208 -350 -239 -472 -57 -225 39 -387 276 -463 118 -38 234
-51 465 -51 193 0 241 3 339 23 215 42 323 107 383 228 29 59 33 76 32 143 -1
41 -9 104 -18 140 -24 92 -122 283 -220 430 l-84 125 31 34 c53 62 71 115 72
216 0 76 -4 99 -26 145 -50 105 -135 163 -245 163 -109 0 -213 -68 -246 -160
-7 -18 -15 -33 -18 -33 -4 0 -15 18 -25 40 -21 47 -92 116 -138 135 -51 20
-118 25 -167 11z m188 -53 c31 -19 58 -47 79 -83 18 -29 31 -55 29 -57 -2 -2
-19 5 -37 16 -86 50 -273 53 -373 8 -31 -14 -56 -24 -56 -21 0 20 47 89 79
115 54 46 95 59 169 55 48 -3 74 -11 110 -33z m527 3 c47 -28 87 -73 104 -119
12 -32 12 -32 -31 -8 -89 51 -270 54 -372 8 -31 -14 -56 -24 -56 -21 0 3 9 22
20 43 25 49 91 106 138 120 60 17 146 6 197 -23z m-667 -158 c7 -7 12 -24 12
-38 0 -14 -5 -31 -12 -38 -7 -7 -24 -12 -38 -12 -33 0 -50 17 -50 50 0 33 17
50 50 50 14 0 31 -5 38 -12z m530 0 c7 -7 12 -24 12 -38 0 -14 -5 -31 -12 -38
-7 -7 -24 -12 -38 -12 -14 0 -31 5 -38 12 -7 7 -12 24 -12 38 0 14 5 31 12 38
7 7 24 12 38 12 14 0 31 -5 38 -12z m-703 -15 c-30 -72 -9 -178 47 -233 33
-33 30 -37 -10 -16 -90 47 -130 171 -76 235 28 34 51 41 39 14z m526 -24 c-23
-67 -6 -142 46 -200 42 -46 32 -50 -25 -9 -46 33 -68 70 -78 127 -7 44 13 95
43 112 24 13 27 7 14 -30z m-91 -62 c0 -57 -35 -129 -73 -148 -21 -11 -21 -11
-5 7 43 49 63 166 37 217 -11 21 -10 21 15 -2 21 -20 26 -33 26 -74z m530 43
c23 -54 -19 -163 -73 -191 -21 -11 -21 -11 -6 7 46 53 61 121 46 198 -8 34 -7
38 6 28 8 -7 20 -26 27 -42z m-705 -90 c0 -22 -29 -18 -33 3 -3 14 1 18 15 15
10 -2 18 -10 18 -18z m530 0 c0 -22 -29 -18 -33 3 -3 14 1 18 15 15 10 -2 18
-10 18 -18z m-320 -101 c25 -47 84 -108 127 -130 60 -31 142 -35 213 -11 33
11 62 19 66 16 13 -8 123 -179 179 -281 33 -58 74 -145 91 -192 28 -75 33 -99
33 -186 1 -86 -2 -106 -21 -140 -34 -61 -50 -78 -75 -80 -15 -1 -22 -8 -20
-19 2 -12 -5 -16 -27 -16 -29 0 -49 -14 -34 -23 5 -2 3 -3 -3 -1 -6 1 -18 -6
-26 -15 -18 -22 -145 -57 -254 -72 -120 -15 -411 -13 -548 6 -134 18 -160 27
-153 56 6 22 -34 55 -53 44 -5 -3 -10 -1 -10 4 0 6 6 11 13 11 6 0 3 6 -8 12
-11 7 -22 10 -25 7 -5 -4 -6 -9 -8 -41 -1 -10 -6 -18 -12 -18 -5 0 -7 7 -3 17
5 14 1 15 -26 10 -29 -6 -37 -2 -80 41 -122 122 -108 315 41 587 33 60 66 117
73 125 6 8 23 35 36 60 13 25 25 47 26 49 2 3 15 -6 31 -20 l27 -24 -24 28
-25 27 21 21 c24 25 44 18 36 -11 -4 -14 0 -20 11 -20 10 0 15 4 12 9 -4 5 2
7 13 4 13 -3 17 -11 14 -24 -3 -10 0 -26 7 -34 7 -8 8 -15 3 -15 -6 0 -8 -11
-5 -25 2 -14 9 -22 15 -18 6 4 8 0 4 -10 -4 -10 -2 -14 7 -11 7 3 18 -7 24
-21 7 -14 17 -23 23 -20 5 4 18 -2 28 -14 12 -14 21 -17 28 -10 8 8 17 7 33
-1 12 -6 24 -9 27 -6 3 3 -6 10 -20 15 -27 10 -45 31 -28 31 6 0 11 -5 11 -11
0 -6 9 -8 23 -3 32 10 33 12 9 37 -12 13 -19 26 -16 30 4 4 13 -1 20 -11 7 -9
16 -14 20 -10 4 4 2 14 -5 21 -9 11 -8 17 4 27 14 12 13 16 -7 38 -17 19 -19
24 -6 19 9 -3 19 0 22 9 3 8 1 14 -4 14 -23 0 -7 28 38 66 26 23 59 62 72 88
14 25 26 46 27 46 1 0 10 -14 18 -31z m-98 -40 c-41 -58 -146 -97 -224 -83
-50 9 -102 36 -132 68 -30 32 -24 33 26 4 33 -20 52 -23 143 -23 96 0 109 2
150 26 25 15 46 27 48 28 2 1 -3 -8 -11 -20z m208 -15 c61 -29 224 -27 283 4
57 29 50 8 -10 -34 -76 -52 -171 -56 -253 -9 -35 20 -96 75 -70 63 6 -2 28
-13 50 -24z m-345 -162 c0 -13 -12 -22 -22 -16 -10 6 -1 24 13 24 5 0 9 -4 9
-8z m60 -16 c0 -3 -4 -8 -10 -11 -5 -3 -10 -1 -10 4 0 6 5 11 10 11 6 0 10 -2
10 -4z m-75 -104 c-3 -3 -11 0 -18 7 -9 10 -8 11 6 5 10 -3 15 -9 12 -12z"/>
<path d="M1510 1069 c0 -4 7 -9 15 -13 9 -3 15 0 15 8 0 7 -7 13 -15 13 -8 0
-15 -4 -15 -8z"/>
<path d="M1520 1025 c-1 -11 -2 -24 -1 -29 1 -4 -6 -14 -16 -22 -17 -13 -17
-13 0 -14 9 0 17 5 17 11 0 6 6 9 13 6 7 -2 18 6 24 19 11 25 0 34 -13 12 -6
-9 -10 -5 -15 12 -6 21 -7 22 -9 5z"/>
<path d="M1220 996 c0 -2 8 -10 18 -17 15 -13 16 -12 3 4 -13 16 -21 21 -21
13z"/>
<path d="M1748 976 c-4 -19 0 -25 18 -29 13 -2 29 2 35 9 9 11 8 14 -5 14 -9
0 -19 7 -22 15 -9 22 -21 18 -26 -9z"/>
<path d="M1174 975 c-4 -10 -1 -21 6 -25 7 -4 10 -12 6 -18 -3 -5 1 -13 10
-16 21 -8 33 2 16 13 -7 4 -11 18 -10 31 3 27 -19 39 -28 15z"/>
<path d="M1230 888 c0 -15 5 -30 10 -33 6 -3 10 1 10 9 0 20 16 21 24 1 3 -8
10 -15 15 -15 6 0 3 15 -7 34 -21 42 -52 45 -52 4z"/>
<path d="M1485 877 c-4 -10 -5 -21 -1 -24 10 -10 18 4 13 24 -4 17 -4 17 -12
0z"/>
<path d="M1330 840 c0 -5 6 -10 14 -10 8 0 18 5 21 10 3 6 -3 10 -14 10 -12 0
-21 -4 -21 -10z"/>
<path d="M1318 803 c7 -3 16 -2 19 1 4 3 -2 6 -13 5 -11 0 -14 -3 -6 -6z"/>
<path d="M1492 723 c3 -16 19 -18 136 -21 127 -2 132 -2 132 18 0 19 -6 20
-136 20 -124 0 -135 -2 -132 -17z"/>
<path d="M1417 654 c-2 -13 0 -24 4 -24 5 0 6 -13 3 -29 -3 -16 -1 -37 5 -48
6 -10 11 -12 11 -5 0 19 17 14 23 -8 5 -21 27 -28 27 -9 0 8 6 7 17 -2 15 -13
16 -11 11 14 -3 15 0 31 6 35 6 4 19 19 28 33 15 24 15 25 -5 25 -16 -1 -21 4
-19 19 2 16 -1 14 -15 -7 -10 -16 -23 -28 -30 -28 -15 0 -17 16 -3 25 18 11
10 23 -12 17 -12 -3 -19 -1 -15 4 3 6 -3 10 -13 11 -12 1 -20 -7 -23 -23z"/>
<path d="M1387 606 c-6 -14 0 -26 13 -26 3 0 6 9 6 20 0 23 -11 27 -19 6z"/>
<path d="M1849 553 c-1 -10 -1 -24 0 -30 1 -8 -5 -10 -14 -7 -10 4 -15 0 -15
-10 0 -9 5 -16 11 -16 7 0 5 -9 -4 -24 -12 -17 -13 -26 -4 -35 15 -15 32 -14
19 2 -7 8 -6 16 4 25 12 11 14 9 15 -10 1 -19 3 -18 8 6 6 30 31 49 31 24 0
-8 -6 -20 -12 -27 -9 -10 -9 -12 -1 -7 6 3 16 -2 22 -11 5 -10 12 -15 16 -11
4 3 2 15 -3 25 -8 13 -6 23 5 36 13 13 14 20 5 29 -9 9 -9 15 0 25 6 7 8 17 4
21 -4 4 -12 -1 -17 -11 -12 -20 -29 -23 -29 -3 0 8 -7 17 -16 20 -22 9 -24 8
-25 -11z"/>
<path d="M1080 261 c0 -5 -10 -11 -22 -13 -22 -3 -22 -4 -3 -9 22 -6 52 16 35
26 -6 3 -10 2 -10 -4z"/>
<path d="M2210 261 c0 -5 -8 -12 -17 -15 -11 -3 -8 -4 6 -3 24 2 44 27 22 27
-6 0 -11 -4 -11 -9z"/>
<path d="M1208 145 c-3 -14 -2 -25 2 -25 4 0 10 11 12 25 3 14 2 25 -2 25 -4
0 -10 -11 -12 -25z"/>
<path d="M1240 150 c0 -5 5 -10 11 -10 5 0 7 5 4 10 -3 6 -8 10 -11 10 -2 0
-4 -4 -4 -10z"/>
</g>
</svg>
