<svg width="17" height="16" viewBox="0 0 17 16" fill="none" xmlns="http://www.w3.org/2000/svg">
<circle cx="8.63281" cy="7.99976" r="8" fill="black" fill-opacity="0.1"/>
<path fill-rule="evenodd" clip-rule="evenodd" d="M9.65709 6.2744C10.0213 6.09136 10.4846 5.82192 10.9486 5.45276C11.0464 5.65752 11.0571 5.8362 11.0067 5.98048C10.971 6.08216 10.9037 6.1706 10.8152 6.24096C10.7194 6.317 10.5997 6.37236 10.4674 6.40228C10.2163 6.45928 9.92324 6.426 9.65709 6.2744ZM9.72023 8.14984L10.2023 8.43052C9.21801 8.9866 8.95043 10.0192 8.63257 11.0249C8.31475 10.0192 8.04713 8.9866 7.06289 8.43052L7.54495 8.14984C7.59158 8.13207 7.63144 8.09988 7.65882 8.05789C7.68619 8.01589 7.69967 7.96623 7.69733 7.91604C7.65316 6.97416 7.90547 6.55764 8.24578 6.29612C8.36785 6.20244 8.5011 6.1554 8.63257 6.1554C8.76404 6.1554 8.89729 6.20244 9.01939 6.29612C9.35971 6.55764 9.61201 6.97416 9.56785 7.91604C9.56551 7.96623 9.57899 8.01589 9.60636 8.05789C9.63374 8.09988 9.67359 8.13207 9.72023 8.14984ZM8.63257 1.99976C9.18979 2.01484 9.7484 2.12388 10.2332 2.336C10.5689 2.48308 10.8822 2.67736 11.1658 2.90968C11.2939 3.01456 11.3994 3.11588 11.5156 3.23252C11.829 3.24344 12.2869 2.89252 12.4996 2.56416C12.1336 3.77336 10.4639 5.20132 9.30789 5.74772C9.30741 5.74752 9.30709 5.74724 9.30674 5.747C9.09928 5.58732 8.86594 5.50748 8.63257 5.50748C8.3992 5.50748 8.1659 5.58732 7.95844 5.747C7.95809 5.7472 7.95777 5.74756 7.95729 5.74772C6.80126 5.20132 5.13154 3.77336 4.76562 2.56416C4.9782 2.89252 5.43618 3.24344 5.74955 3.23252C5.86578 3.11592 5.97126 3.01456 6.09932 2.90968C6.38297 2.67736 6.69622 2.48308 7.03193 2.336C7.51678 2.12388 8.07539 2.01484 8.63257 1.99976ZM7.60805 6.2744C7.24392 6.09136 6.78051 5.82192 6.31662 5.45276C6.2188 5.65752 6.20809 5.8362 6.25844 5.98048C6.2942 6.08216 6.3615 6.1706 6.44995 6.24096C6.54582 6.317 6.66551 6.37236 6.79781 6.40228C7.04884 6.45928 7.34189 6.426 7.60805 6.2744Z" fill="white"/>
<path fill-rule="evenodd" clip-rule="evenodd" d="M11.4569 5.00049C11.7123 4.74069 11.9373 4.45313 12.1183 4.19653L12.2102 4.37089C12.5061 4.96757 12.6598 5.56185 12.6598 6.23065L12.6592 7.29193L12.6647 7.84209C12.6861 9.19273 12.9761 10.5593 13.6328 11.8098L12.2587 10.6929L11.2865 12.2833L10.265 11.3141L8.63281 13.984L7.00059 11.3141L5.9792 12.2833L5.00694 10.693L3.63281 11.8099C4.28956 10.5593 4.57948 9.19277 4.60095 7.84213L4.6065 7.29197L4.60587 6.23069C4.60587 5.56185 4.75956 4.96757 5.05551 4.37093L5.14738 4.19657C5.32833 4.45317 5.55333 4.74069 5.80876 5.00053L5.729 5.16753C5.57404 5.49189 5.52273 5.85457 5.64345 6.19949C5.72126 6.42165 5.86329 6.61217 6.04638 6.75761C6.22416 6.89885 6.43456 6.99405 6.65484 7.04405C6.79833 7.07661 6.94452 7.09001 7.08976 7.08545C7.05587 7.27909 7.04107 7.47993 7.04011 7.68457L5.74392 8.43921L6.74416 9.00437C6.82411 9.04955 6.90021 9.10132 6.9717 9.15913C7.79634 9.90545 8.29214 12.1133 8.63285 13.1918C8.97361 12.1133 9.46936 9.90545 10.294 9.15913C10.3655 9.10131 10.4416 9.04954 10.5216 9.00437L11.5218 8.43921L10.2256 7.68457C10.2246 7.47993 10.2098 7.27909 10.1759 7.08545C10.3212 7.09001 10.4674 7.07661 10.6109 7.04405C10.8311 6.99405 11.0416 6.89885 11.2193 6.75761C11.4024 6.61217 11.5444 6.42165 11.6222 6.19949C11.743 5.85457 11.6916 5.49193 11.5367 5.16753L11.4569 5.00053L11.4569 5.00049Z" fill="white"/>
</svg>
