<svg width="17" height="16" viewBox="0 0 17 16" fill="none" xmlns="http://www.w3.org/2000/svg">
<circle cx="8.63281" cy="7.99976" r="8" fill="black" fill-opacity="0.1"/>
<path d="M9.49068 3.71043C10.4382 2.76286 11.9746 2.76286 12.9221 3.71043C13.8697 4.658 13.8697 6.19431 12.9221 7.14188L7.77495 12.2891C6.82738 13.2366 5.29106 13.2366 4.34349 12.2891C3.39592 11.3415 3.39592 9.80518 4.34349 8.85761L9.49068 3.71043Z" fill="white"/>
<path fill-rule="evenodd" clip-rule="evenodd" d="M13.2437 7.4637L8.09652 12.6109C6.97128 13.7361 5.1469 13.7361 4.02166 12.6109C2.89642 11.4856 2.89642 9.66127 4.02166 8.53603L9.16885 3.38885C10.2941 2.26361 12.1185 2.26361 13.2437 3.38885C14.3689 4.51409 14.3689 6.33846 13.2437 7.4637ZM12.922 3.71055C11.9744 2.76298 10.4381 2.76298 9.49055 3.71055L4.34336 8.85773C3.39579 9.80529 3.39579 11.3416 4.34336 12.2892C5.29093 13.2367 6.82725 13.2367 7.77482 12.2892L12.922 7.142C13.8696 6.19443 13.8696 4.65812 12.922 3.71055Z" fill="#14403C"/>
<path fill-rule="evenodd" clip-rule="evenodd" d="M4.39258 12.337C5.34341 13.2364 6.84341 13.2204 7.77471 12.2891L12.9219 7.14189C13.8695 6.19432 13.8695 4.65801 12.9219 3.71044C12.7043 3.49282 12.4556 3.32518 12.1901 3.20752C12.2068 3.22323 12.2232 3.23922 12.2395 3.25549C13.187 4.20306 13.187 5.73937 12.2395 6.68694L7.09228 11.8341C6.36233 12.5641 5.28301 12.7317 4.39258 12.337Z" fill="#C4D4D5" fill-opacity="0.47"/>
<path d="M4.34349 8.85752C3.39592 9.80509 3.39592 11.3414 4.34349 12.289C5.29106 13.2365 6.82738 13.2365 7.77495 12.289L10.3485 9.71539L6.91708 6.28394L4.34349 8.85752Z" fill="#51D28C"/>
<path fill-rule="evenodd" clip-rule="evenodd" d="M7.77471 12.289C6.84341 13.2203 5.34341 13.2363 4.39258 12.337C5.283 12.7316 6.36233 12.564 7.09228 11.8341L9.77961 9.14673L10.3483 9.71542L7.77471 12.289Z" fill="#2A8D69"/>
<path d="M8.42657 10.6889C8.42657 10.8773 8.2738 11.0301 8.08535 11.0301C7.89691 11.0301 7.74414 10.8773 7.74414 10.6889C7.74414 10.5004 7.89691 10.3477 8.08535 10.3477C8.2738 10.3477 8.42657 10.5004 8.42657 10.6889Z" fill="white" fill-opacity="0.6"/>
<path d="M7.3692 11.8372C7.3692 12.0767 7.17506 12.2708 6.93558 12.2708C6.69609 12.2708 6.50195 12.0767 6.50195 11.8372C6.50195 11.5977 6.69609 11.4036 6.93558 11.4036C7.17506 11.4036 7.3692 11.5977 7.3692 11.8372Z" fill="white" fill-opacity="0.6"/>
<path d="M7.36976 10.7659C7.36976 10.9117 7.25157 11.0299 7.10578 11.0299C6.95999 11.0299 6.8418 10.9117 6.8418 10.7659C6.8418 10.6201 6.95999 10.502 7.10578 10.502C7.25157 10.502 7.36976 10.6201 7.36976 10.7659Z" fill="white" fill-opacity="0.6"/>
<path d="M6.1471 12.2708C6.1471 12.4166 6.02891 12.5348 5.88312 12.5348C5.73733 12.5348 5.61914 12.4166 5.61914 12.2708C5.61914 12.125 5.73733 12.0068 5.88312 12.0068C6.02891 12.0068 6.1471 12.125 6.1471 12.2708Z" fill="white" fill-opacity="0.6"/>
<path d="M6.24671 11.3572C6.24671 11.503 6.12852 11.6212 5.98273 11.6212C5.83694 11.6212 5.71875 11.503 5.71875 11.3572C5.71875 11.2114 5.83694 11.0933 5.98273 11.0933C6.12852 11.0933 6.24671 11.2114 6.24671 11.3572Z" fill="white" fill-opacity="0.6"/>
<path d="M5.29359 11.743C5.29359 11.8888 5.1754 12.007 5.02961 12.007C4.88381 12.007 4.76562 11.8888 4.76562 11.743C4.76562 11.5972 4.88381 11.479 5.02961 11.479C5.1754 11.479 5.29359 11.5972 5.29359 11.743Z" fill="white" fill-opacity="0.6"/>
<path d="M9.30335 10.0836C9.30335 10.2294 9.18516 10.3475 9.03937 10.3475C8.89358 10.3475 8.77539 10.2294 8.77539 10.0836C8.77539 9.93777 8.89358 9.81958 9.03937 9.81958C9.18516 9.81958 9.30335 9.93777 9.30335 10.0836Z" fill="white" fill-opacity="0.6"/>
<path fill-rule="evenodd" clip-rule="evenodd" d="M11.0088 3.81893C11.1821 4.00088 11.1751 4.28885 10.9931 4.46213L8.60465 6.73688C8.4227 6.91017 8.13473 6.90315 7.96144 6.7212C7.78816 6.53925 7.79518 6.25128 7.97713 6.07799L10.3656 3.80324C10.5476 3.62995 10.8355 3.63698 11.0088 3.81893Z" fill="#FDF9E9" fill-opacity="0.47"/>
<path fill-rule="evenodd" clip-rule="evenodd" d="M11.0074 3.81711C11.1817 3.9981 11.1763 4.28611 10.9953 4.4604L10.2276 5.19969C10.0466 5.37398 9.75856 5.36854 9.58427 5.18755C9.40999 5.00656 9.41542 4.71856 9.59641 4.54427L10.3641 3.80498C10.5451 3.63069 10.8331 3.63612 11.0074 3.81711Z" fill="white"/>
</svg>
