<svg width="17" height="16" viewBox="0 0 17 16" fill="none" xmlns="http://www.w3.org/2000/svg">
<circle cx="8.63281" cy="7.99976" r="8" fill="black" fill-opacity="0.1"/>
<g clip-path="url(#clip0_1792_577)">
<path fill-rule="evenodd" clip-rule="evenodd" d="M4.03967 7.00395C6.27663 5.82792 7.76828 5.05262 8.51464 4.67803C10.6456 3.60849 11.0884 3.4227 11.377 3.41657C11.4405 3.41522 11.5824 3.4342 11.6744 3.52422C11.752 3.60023 11.7734 3.70291 11.7836 3.77497C11.7938 3.84704 11.8065 4.0112 11.7964 4.13948C11.6809 5.60359 11.1813 9.15659 10.9271 10.7964C10.8195 11.4903 10.6077 11.7229 10.4027 11.7457C9.95705 11.7952 9.61867 11.3904 9.18708 11.049C8.51172 10.5148 8.13018 10.1822 7.47463 9.66095C6.71702 9.05852 7.20814 8.72741 7.6399 8.18629C7.75289 8.04468 9.71626 5.88977 9.75426 5.69429C9.75902 5.66984 9.76343 5.57871 9.71856 5.53059C9.67369 5.48246 9.60747 5.49892 9.55968 5.51201C9.49195 5.53056 8.41305 6.39105 6.32299 8.09347C6.01675 8.34722 5.73936 8.47085 5.49084 8.46437C5.21686 8.45723 4.68983 8.27745 4.29804 8.12377C3.81749 7.93528 3.43556 7.83562 3.46882 7.51551C3.48614 7.34877 3.67642 7.17825 4.03967 7.00395Z" fill="white"/>
</g>
<defs>
<clipPath id="clip0_1792_577">
<rect width="10" height="10" fill="white" transform="translate(2.63281 2.99976)"/>
</clipPath>
</defs>
</svg>
