<svg width="17" height="16" viewBox="0 0 17 16" fill="none" xmlns="http://www.w3.org/2000/svg">
<circle cx="8.63281" cy="7.99976" r="8" fill="black" fill-opacity="0.1"/>
<path d="M12.6049 5.49193C12.6113 5.6013 12.6113 5.7107 12.6113 5.82007C12.6113 9.15599 10.5491 12.9998 6.78003 12.9998C5.61886 12.9998 4.54018 12.5857 3.63281 11.867C3.79779 11.8904 3.95641 11.8982 4.12774 11.8982C5.08585 11.8982 5.96784 11.4998 6.67216 10.8201C5.77114 10.7966 5.01606 10.0701 4.7559 9.07007C4.88282 9.09349 5.00971 9.10912 5.14297 9.10912C5.32698 9.10912 5.511 9.07786 5.68231 9.0232C4.74323 8.7888 4.03889 7.77319 4.03889 6.54663V6.51539C4.31172 6.70289 4.62901 6.82007 4.96528 6.83568C4.41325 6.38255 4.05158 5.60912 4.05158 4.73411C4.05158 4.26537 4.15309 3.83568 4.33076 3.46068C5.33966 4.99193 6.85617 5.99191 8.55666 6.10131C8.52494 5.91381 8.5059 5.71851 8.5059 5.5232C8.5059 4.13256 9.41961 2.99976 10.5554 2.99976C11.1455 2.99976 11.6785 3.30444 12.0529 3.79663C12.5161 3.68726 12.9602 3.47631 13.3536 3.18726C13.2013 3.77321 12.8777 4.2654 12.4526 4.57787C12.8651 4.52321 13.2648 4.38256 13.6328 4.18726C13.3537 4.68724 13.0047 5.13254 12.6049 5.49193Z" fill="white"/>
</svg>
